<svg width="24" height="24" viewBox="0 0 24 24" fill="none" xmlns="http://www.w3.org/2000/svg">
<path d="M7.86453 16.1253L12.1281 16.1108L20.4338 7.83956C20.799 7.47221 21 6.98436 21 6.4654C21 5.94645 20.799 5.45859 20.4338 5.09124L18.9016 3.54993C18.1712 2.81523 16.8968 2.81912 16.1722 3.54702L7.86453 11.8202V16.1253ZM17.5355 4.92409L19.0706 6.46249L17.5277 7.99991L15.9954 6.45957L17.5355 4.92409ZM9.79679 12.6307L14.6226 7.82596L16.1548 9.36727L11.33 14.17L9.79679 14.1749V12.6307Z" fill="#8289A0"/>
<path d="M3 17.625V6.375C3 4.5109 4.51153 3.00024 6.375 3H11.6797C12.301 3 12.8047 3.50368 12.8047 4.125C12.8047 4.74632 12.301 5.25 11.6797 5.25H6.375C5.75359 5.25024 5.25 5.75412 5.25 6.375V17.625C5.25 18.2463 5.75368 18.75 6.375 18.75H17.625C18.2463 18.75 18.75 18.2463 18.75 17.625V12.25C18.75 11.6287 19.2537 11.125 19.875 11.125C20.4963 11.125 21 11.6287 21 12.25V17.625C21 19.489 19.489 21 17.625 21H6.375C4.51104 21 3 19.489 3 17.625Z" fill="#8289A0"/>
</svg>
