<svg width="24" height="24" viewBox="0 0 24 24" fill="none" xmlns="http://www.w3.org/2000/svg">
<path d="M3.165 19.551C3.351 19.831 3.664 20 4 20H19C19.4 20 19.762 19.762 19.919 19.394L22.919 12.394C22.9847 12.2419 23.0116 12.0759 22.9971 11.9109C22.9827 11.7458 22.9273 11.587 22.8362 11.4487C22.745 11.3104 22.6208 11.1969 22.4748 11.1186C22.3288 11.0403 22.1657 10.9995 22 11H21V7C21 5.897 20.103 5 19 5H12.9L10.616 3.213C10.4403 3.07499 10.2234 2.99998 10 3H5C3.897 3 3 3.897 3 5V19H3.007C3.00477 19.1952 3.05969 19.3867 3.165 19.551ZM18.341 18H5.517L7.66 13H20.484L18.341 18ZM19 7V11H7C6.6 11 6.238 11.238 6.081 11.606L5 14.129V7H19Z" fill="#8289A0"/>
</svg>
