<svg width="20" height="20" viewBox="0 0 20 20" fill="none" xmlns="http://www.w3.org/2000/svg">
<path d="M3.51834 16.4817C3.9049 16.8688 4.36415 17.1757 4.86969 17.3848C5.37523 17.5939 5.9171 17.701 6.46418 17.7C7.01137 17.701 7.55336 17.5938 8.05903 17.3848C8.5647 17.1757 9.0241 16.8688 9.41084 16.4817L11.7675 14.1242L10.5892 12.9458L8.23251 15.3033C7.7629 15.7709 7.12724 16.0333 6.46459 16.0333C5.80195 16.0333 5.16628 15.7709 4.69668 15.3033C4.22876 14.8339 3.96601 14.1982 3.96601 13.5354C3.96601 12.8726 4.22876 12.2369 4.69668 11.7675L7.05418 9.41084L5.87584 8.23251L3.51834 10.5892C2.73818 11.3712 2.30005 12.4308 2.30005 13.5354C2.30005 14.6401 2.73818 15.6996 3.51834 16.4817ZM16.4817 9.41084C17.2614 8.62858 17.6993 7.56911 17.6993 6.46459C17.6993 5.36008 17.2614 4.30061 16.4817 3.51834C15.6996 2.73818 14.6401 2.30005 13.5354 2.30005C12.4308 2.30005 11.3712 2.73818 10.5892 3.51834L8.23251 5.87584L9.41084 7.05418L11.7675 4.69668C12.2371 4.22917 12.8728 3.9667 13.5354 3.9667C14.1981 3.9667 14.8337 4.22917 15.3033 4.69668C15.7713 5.16607 16.034 5.80182 16.034 6.46459C16.034 7.12737 15.7713 7.76312 15.3033 8.23251L12.9458 10.5892L14.1242 11.7675L16.4817 9.41084Z" fill="#242837"/>
<path d="M7.05334 14.125L5.87418 12.9467L12.9467 5.87501L14.125 7.05418L7.05334 14.125Z" fill="#242837"/>
</svg>
