<svg width="16" height="16" viewBox="0 0 16 16" fill="none" xmlns="http://www.w3.org/2000/svg">
<path d="M3.65824 9.96724C4.23951 9.96394 4.79859 9.74362 5.22585 9.34949L9.38403 11.7275C9.33106 11.911 9.30423 12.1011 9.30432 12.2921C9.30005 12.8312 9.48166 13.3552 9.81856 13.7761C10.1555 14.1969 10.6271 14.4888 11.154 14.6026C11.681 14.7164 12.231 14.6452 12.7116 14.4009C13.1921 14.1566 13.5738 13.7542 13.7924 13.2614C14.011 12.7686 14.0531 12.2156 13.9117 11.6954C13.7702 11.1752 13.4538 10.7196 13.0158 10.4054C12.5778 10.0912 12.0449 9.93749 11.5068 9.97019C10.9687 10.0029 10.4583 10.22 10.0616 10.585L5.90338 8.20699C5.95357 8.0433 5.9804 7.87335 5.98309 7.70216L10.0682 5.36402C10.4628 5.72061 10.968 5.93068 11.4991 5.95898C12.0302 5.98729 12.5549 5.83212 12.9852 5.51949C13.4154 5.20686 13.7251 4.75579 13.8623 4.24192C13.9995 3.72806 13.9558 3.18266 13.7385 2.69719C13.5213 2.21173 13.1437 1.81572 12.6692 1.57558C12.1946 1.33545 11.6519 1.26579 11.1321 1.3783C10.6123 1.49081 10.147 1.77863 9.81418 2.1935C9.48138 2.60838 9.30137 3.12506 9.30432 3.65691C9.30656 3.84775 9.33335 4.03751 9.38403 4.22152L5.60447 6.38031C5.38548 6.04152 5.08209 5.76554 4.72414 5.5795C4.36619 5.39347 3.96598 5.30377 3.56287 5.31924C3.15975 5.33471 2.7676 5.4548 2.42495 5.66772C2.08231 5.88064 1.80096 6.17906 1.60857 6.53363C1.41618 6.88821 1.31936 7.28675 1.32764 7.69008C1.33591 8.09341 1.449 8.48764 1.65577 8.83403C1.86254 9.18042 2.15589 9.46704 2.50699 9.66572C2.85808 9.86441 3.25483 9.96832 3.65824 9.96724ZM11.6292 11.2957C11.8262 11.2957 12.0189 11.3542 12.1827 11.4636C12.3466 11.5731 12.4743 11.7287 12.5497 11.9108C12.6251 12.0929 12.6448 12.2932 12.6064 12.4865C12.568 12.6798 12.4731 12.8573 12.3337 12.9966C12.1944 13.136 12.0168 13.2309 11.8236 13.2693C11.6303 13.3078 11.4299 13.288 11.2479 13.2126C11.0658 13.1372 10.9102 13.0095 10.8007 12.8456C10.6912 12.6818 10.6328 12.4892 10.6328 12.2921C10.6328 12.0278 10.7378 11.7744 10.9246 11.5876C11.1115 11.4007 11.3649 11.2957 11.6292 11.2957ZM11.6292 2.66054C11.8262 2.66054 12.0189 2.71898 12.1827 2.82846C12.3466 2.93794 12.4743 3.09355 12.5497 3.27562C12.6251 3.45768 12.6448 3.65801 12.6064 3.85129C12.568 4.04457 12.4731 4.2221 12.3337 4.36145C12.1944 4.50079 12.0168 4.59569 11.8236 4.63413C11.6303 4.67258 11.4299 4.65285 11.2479 4.57743C11.0658 4.50202 10.9102 4.37431 10.8007 4.21046C10.6912 4.04661 10.6328 3.85397 10.6328 3.65691C10.6328 3.39266 10.7378 3.13923 10.9246 2.95237C11.1115 2.76552 11.3649 2.66054 11.6292 2.66054ZM3.65824 6.64601C3.8553 6.64601 4.04794 6.70445 4.21179 6.81393C4.37564 6.92341 4.50335 7.07902 4.57876 7.26109C4.65417 7.44315 4.6739 7.64348 4.63546 7.83676C4.59701 8.03004 4.50212 8.20757 4.36277 8.34692C4.22343 8.48626 4.04589 8.58116 3.85262 8.6196C3.65934 8.65805 3.45901 8.63832 3.27694 8.5629C3.09488 8.48749 2.93927 8.35978 2.82979 8.19593C2.7203 8.03208 2.66187 7.83944 2.66187 7.64238C2.66187 7.37813 2.76684 7.1247 2.9537 6.93784C3.14055 6.75099 3.39398 6.64601 3.65824 6.64601Z" fill="#3B4154"/>
</svg>
