<svg width="16" height="16" viewBox="0 0 16 16" fill="none" xmlns="http://www.w3.org/2000/svg">
<path d="M8.00016 1.33333C4.32416 1.33333 1.3335 4.32399 1.3335 7.99999C1.3335 11.676 4.32416 14.6667 8.00016 14.6667C11.6762 14.6667 14.6668 11.676 14.6668 7.99999C14.6668 4.32399 11.6762 1.33333 8.00016 1.33333ZM8.00016 13.3333C5.0595 13.3333 2.66683 10.9407 2.66683 7.99999C2.66683 5.05933 5.0595 2.66666 8.00016 2.66666C10.9408 2.66666 13.3335 5.05933 13.3335 7.99999C13.3335 10.9407 10.9408 13.3333 8.00016 13.3333Z" fill="#3B4154"/>
<path d="M8.66683 4.66666H7.3335V8.27599L9.52883 10.4713L10.4715 9.52866L8.66683 7.72399V4.66666Z" fill="#3B4154"/>
</svg>
