<svg width="20" height="20" viewBox="0 0 20 20" fill="none" xmlns="http://www.w3.org/2000/svg">
<path d="M9.99984 17.5C14.6022 17.5 18.3332 13.769 18.3332 9.16665C18.3332 4.56427 14.6022 0.833313 9.99984 0.833313C5.39746 0.833313 1.6665 4.56427 1.6665 9.16665C1.6665 13.769 5.39746 17.5 9.99984 17.5Z" fill="#FFF59D"/>
<path d="M15.4166 9.16666C15.4166 5.95833 12.6666 3.41666 9.37489 3.79166C6.87489 4.08333 4.87489 6.08333 4.62489 8.58333C4.41655 10.5 5.20822 12.2083 6.54155 13.2917C7.12489 13.7917 7.49989 14.5 7.49989 15.2917V15.4167H12.4999V15.375C12.4999 14.625 12.8332 13.875 13.4166 13.375C14.6249 12.375 15.4166 10.875 15.4166 9.16666Z" fill="#FBC02D"/>
<path d="M12.75 8.41665L11.5 7.58331C11.375 7.49998 11.1667 7.49998 11.0417 7.58331L10 8.24998L9 7.58331C8.875 7.49998 8.66667 7.49998 8.54167 7.58331L7.29167 8.41665C7.20833 8.49998 7.125 8.58331 7.125 8.70831C7.125 8.83331 7.125 8.95831 7.20833 9.04165L8.79167 11V15.4166H9.625V10.8333C9.625 10.75 9.58333 10.6666 9.54167 10.5833L8.16667 8.87498L8.79167 8.45831L9.79167 9.12498C9.91667 9.20831 10.125 9.20831 10.25 9.12498L11.25 8.45831L11.875 8.87498L10.5 10.5833C10.4583 10.6666 10.4167 10.75 10.4167 10.8333V15.4166H11.25V11L12.8333 9.04165C12.9167 8.95831 12.9583 8.83331 12.9167 8.70831C12.875 8.58331 12.8333 8.45831 12.75 8.41665Z" fill="#FFF59D"/>
<path d="M10 19.5833C10.6904 19.5833 11.25 19.0237 11.25 18.3333C11.25 17.643 10.6904 17.0833 10 17.0833C9.30964 17.0833 8.75 17.643 8.75 18.3333C8.75 19.0237 9.30964 19.5833 10 19.5833Z" fill="#5C6BC0"/>
<path d="M10.8333 18.75H9.16667C8.25 18.75 7.5 18 7.5 17.0833V15H12.5V17.0833C12.5 18 11.75 18.75 10.8333 18.75Z" fill="#9FA8DA"/>
<path d="M12.4998 17.0834L7.6665 17.75C7.7915 18.0417 8.0415 18.3334 8.33317 18.5L12.2498 17.9584C12.4165 17.7084 12.4998 17.4167 12.4998 17.0834Z" fill="#5C6BC0"/>
<path d="M7.5 16.125V16.9584L12.5 16.25V15.4167L7.5 16.125Z" fill="#5C6BC0"/>
</svg>
