<svg width="24" height="24" viewBox="0 0 24 24" fill="none" xmlns="http://www.w3.org/2000/svg">
<path d="M16.293 6.29297C16.6835 5.90244 17.3165 5.90244 17.707 6.29297C18.0976 6.68349 18.0976 7.31651 17.707 7.70703L7.70703 17.707C7.31651 18.0976 6.68349 18.0976 6.29297 17.707C5.90244 17.3165 5.90244 16.6835 6.29297 16.293L16.293 6.29297Z" fill="#343B52"/>
<path d="M16 17V8H7C6.44772 8 6 7.55228 6 7C6 6.44772 6.44772 6 7 6H17C17.5523 6 18 6.44772 18 7V17C18 17.5523 17.5523 18 17 18C16.4477 18 16 17.5523 16 17Z" fill="#343B52"/>
</svg>
