<svg width="24" height="24" viewBox="0 0 24 24" fill="none" xmlns="http://www.w3.org/2000/svg">
<path d="M11.6886 14.0219C11.7325 14.0219 11.7728 14.0293 11.8167 14.0293C11.8605 14.0293 11.9008 14.0219 11.9447 14.0219C13.8356 14.0551 15.5473 14.8358 16.8055 16.077L18.3599 14.5118C17.5882 13.7494 16.6921 13.1159 15.6973 12.6556C17.1237 11.5065 18.0381 9.74605 18.0381 7.76464C18.0344 4.3027 15.2511 1.5 11.8167 1.5C8.38225 1.5 5.59522 4.3027 5.59522 7.76464C5.59522 9.74605 6.5096 11.5065 7.93603 12.6556C4.88566 14.0588 2.72041 17.0714 2.50096 20.6107C2.48267 20.9274 2.72773 21.1999 3.04593 21.1999H4.15782C4.43944 21.1999 4.67718 20.9826 4.69913 20.6991C4.9515 17.0125 7.97992 14.0845 11.6923 14.0182L11.6886 14.0219ZM7.78973 7.76464C7.78973 5.52911 9.59654 3.70975 11.8167 3.70975C14.0258 3.66187 15.7595 5.08348 15.8436 7.76464C15.8436 9.94125 14.1282 11.7201 11.9849 11.8085C11.93 11.8085 11.8715 11.8048 11.8167 11.8048C11.7618 11.8048 11.7033 11.8048 11.6484 11.8085C9.5051 11.7201 7.78973 9.94125 7.78973 7.76464Z" fill="#8289A0"/>
<path d="M15.7433 22.4963C15.4617 22.4963 15.1801 22.3895 14.9679 22.1722L12.3199 19.5058C11.892 19.0749 11.892 18.3751 12.3199 17.9442C12.7478 17.5133 13.4427 17.5133 13.8707 17.9442L15.7433 19.8299L21.6283 13.9078C22.0562 13.4768 22.7511 13.4768 23.1791 13.9078C23.607 14.3387 23.607 15.0384 23.1791 15.4693L16.5187 22.1759C16.3029 22.3932 16.025 22.5 15.7433 22.5V22.4963Z" fill="#8289A0"/>
</svg>
