<svg width="16" height="16" viewBox="0 0 16 16" fill="none" xmlns="http://www.w3.org/2000/svg">
<path d="M5.3335 9.33334H7.3335V11.3333H8.66683V9.33334H10.6668V8H8.66683V6H7.3335V8H5.3335V9.33334Z" fill="#9398A8"/>
<path d="M13.3335 2.00001H12.0002V0.666672H10.6668V2.00001H5.3335V0.666672H4.00016V2.00001H2.66683C1.9315 2.00001 1.3335 2.598 1.3335 3.33334V12.6667C1.3335 13.402 1.9315 14 2.66683 14H13.3335C14.0688 14 14.6668 13.402 14.6668 12.6667V3.33334C14.6668 2.598 14.0688 2.00001 13.3335 2.00001ZM13.3348 12.6667H2.66683V4.66667H13.3335L13.3348 12.6667Z" fill="#9398A8"/>
</svg>
