<svg width="24" height="24" viewBox="0 0 24 24" fill="none" xmlns="http://www.w3.org/2000/svg">
<path d="M5.64307 4.48203C9.05502 1.26145 14.535 1.17536 18.0588 4.22189H18.0791L18.3558 4.48114C21.8818 7.79326 21.8807 13.1754 18.3567 16.494C18.3352 16.5142 18.3115 16.5315 18.2892 16.549L12.8927 21.6311C12.0669 22.4087 10.606 21.8873 10.6057 20.7175V18.8601C8.79501 18.5955 7.04399 17.8132 5.64307 16.494C2.11832 13.1818 2.11963 7.80023 5.64307 4.48203ZM17.0208 5.7792C14.2513 3.16456 9.74111 3.16456 6.97161 5.7792L6.97068 5.78009C4.28901 8.30541 4.20584 12.3358 6.71811 14.9473L6.96976 15.195L6.97068 15.1959C8.25214 16.4026 9.91236 17.0467 11.6039 17.1341L12.5004 17.1812V19.4532L17.0134 15.2039L17.1716 15.0538C19.7358 12.4968 19.7467 8.51653 17.2067 5.955L17.0208 5.7792Z" fill="#8289A0"/>
<path d="M11.9589 15.5C11.2851 15.5 10.7886 15.0005 10.7886 14.3011C10.7886 13.6017 11.2851 13.0931 11.9589 13.0931C12.6328 13.0931 13.1293 13.6108 13.1293 14.3011C13.1293 14.9914 12.6328 15.5 11.9589 15.5ZM13.874 10.2775C13.2179 10.8043 12.9342 11.1767 12.8455 11.6399C12.8101 11.8306 12.6505 11.9759 12.4554 11.9759H11.427C11.1876 11.9759 11.0014 11.7579 11.028 11.5036C11.1078 10.6589 11.427 10.1231 12.1097 9.58719C12.7569 9.06948 13.1115 8.73342 13.1115 8.17938C13.1115 7.62534 12.7126 7.25295 12.021 7.25295C11.4181 7.25295 11.0369 7.61626 10.9216 8.07039C10.8773 8.25204 10.7177 8.3792 10.5404 8.3792H9.40552C9.1484 8.3792 8.96221 8.14305 9.00654 7.87966C9.23706 6.49001 10.4074 5.5 12.0121 5.5C13.9183 5.5 15 6.62625 15 8.17938C15 9.02407 14.601 9.69618 13.8829 10.2684L13.874 10.2775Z" fill="#8289A0"/>
</svg>
