<svg width="24" height="24" viewBox="0 0 24 24" fill="none" xmlns="http://www.w3.org/2000/svg">
<path d="M11.1402 3.61496C11.4202 2.79501 12.5798 2.79501 12.8598 3.61496L14.6313 8.80249C14.7222 9.0687 14.9313 9.27779 15.1975 9.3687L20.385 11.1402C21.205 11.4202 21.205 12.5798 20.385 12.8598L15.1975 14.6313C14.9313 14.7222 14.7222 14.9313 14.6313 15.1975L12.8598 20.385C12.5798 21.205 11.4202 21.205 11.1402 20.385L9.3687 15.1975C9.27779 14.9313 9.0687 14.7222 8.80249 14.6313L3.61496 12.8598C2.79501 12.5798 2.79501 11.4202 3.61496 11.1402L8.80249 9.3687C9.0687 9.27779 9.27779 9.0687 9.3687 8.80249L11.1402 3.61496Z" fill="url(#paint0_linear_1188_2008)"/>
<defs>
<linearGradient id="paint0_linear_1188_2008" x1="3" y1="3" x2="21" y2="21" gradientUnits="userSpaceOnUse">
<stop offset="0.2" stop-color="#58CDFF"/>
<stop offset="0.8" stop-color="#7057FF"/>
</linearGradient>
</defs>
</svg>
