<svg width="16" height="16" viewBox="0 0 16 16" fill="none" xmlns="http://www.w3.org/2000/svg">
<path fill-rule="evenodd" clip-rule="evenodd" d="M3.94587 5.61648C3.94587 3.40535 5.74229 1.61458 7.9585 1.61458C10.1747 1.61458 11.9711 3.40535 11.9711 5.61648C11.9711 6.85198 11.4093 7.95737 10.5266 8.69063C11.148 8.98444 11.7146 9.38298 12.2013 9.86931C12.7497 10.4141 13.1865 11.06 13.4876 11.7712C13.7845 12.4699 13.9425 13.2102 13.9584 13.9707C13.9593 14.0087 13.9526 14.0465 13.9386 14.0818C13.9246 14.1174 13.9037 14.1498 13.8769 14.1771C13.8502 14.2044 13.8183 14.2261 13.7832 14.2409C13.748 14.2556 13.7102 14.2632 13.6721 14.2632H12.7405C12.5851 14.2632 12.4579 14.1413 12.4542 13.9843C12.4242 12.8308 11.96 11.751 11.1386 10.932C10.2887 10.0845 9.16081 9.61838 7.9585 9.61838C6.75618 9.61838 5.62826 10.0845 4.77837 10.932C3.95697 11.7511 3.49275 12.8309 3.46279 13.9845C3.45897 14.1385 3.33317 14.2632 3.17647 14.2632H2.24496C2.20682 14.2632 2.16901 14.2556 2.13384 14.2409C2.09865 14.2261 2.06676 14.2044 2.04005 14.1771C2.01334 14.1498 1.99235 14.1174 1.97835 14.0818C1.96442 14.0465 1.95769 14.0086 1.95857 13.9706C1.97328 13.2146 2.13312 12.4685 2.42944 11.7726C2.73106 11.0618 3.16782 10.4161 3.71559 9.87093C4.20574 9.38076 4.76824 8.98502 5.39037 8.69185C5.5185 8.70664 5.41733 8.69498 5.70411 8.73007C5.55505 8.71096 5.55904 8.71171 5.39037 8.69185C4.50771 7.95741 3.94587 6.85205 3.94587 5.61648ZM7.9585 1.9389C5.92056 1.9389 4.2702 3.58532 4.2702 5.61648C4.2702 6.8425 4.87206 7.92942 5.79903 8.59859L6.01644 8.75554L5.77647 8.8752C5.77012 8.87836 5.76453 8.88075 5.76034 8.88245C5.75763 8.88355 5.75508 8.88453 5.75335 8.88518L5.74836 8.88729C5.07219 9.17175 4.46562 9.5795 3.94479 10.1004C3.42663 10.616 3.01325 11.2271 2.72799 11.8993C2.45286 12.5454 2.30213 13.2374 2.2837 13.9389H3.13968C3.18074 12.7159 3.67793 11.5713 4.54936 10.7023C5.46013 9.7941 6.67043 9.29406 7.9585 9.29406C9.24656 9.29406 10.4569 9.7941 11.3676 10.7023C12.2391 11.5713 12.7363 12.7159 12.7773 13.9389H13.6332C13.6137 13.2329 13.4647 12.5465 13.189 11.8978C12.9044 11.2254 12.4912 10.6144 11.9726 10.0992C11.4555 9.58251 10.8427 9.17018 10.1685 8.88567L10.1637 8.88368C10.162 8.88303 10.1594 8.882 10.1567 8.8809C10.1525 8.87921 10.1469 8.87681 10.1405 8.87365L9.90026 8.75385L10.1181 8.59694C11.0449 7.92936 11.6468 6.84253 11.6468 5.61648C11.6468 3.58532 9.99643 1.9389 7.9585 1.9389ZM7.9585 3.1156C7.28876 3.1156 6.65922 3.37573 6.18503 3.84859C5.71086 4.32144 5.45018 4.94902 5.45018 5.61648C5.45018 6.28394 5.71086 6.91152 6.18503 7.38436C6.65922 7.85723 7.28876 8.11736 7.9585 8.11736C8.62823 8.11736 9.25778 7.85723 9.73196 7.38436C10.2061 6.91152 10.4668 6.28394 10.4668 5.61648C10.4668 4.94902 10.2061 4.32144 9.73196 3.84859C9.25778 3.37573 8.62823 3.1156 7.9585 3.1156ZM5.95602 3.61894C6.49103 3.08542 7.20294 2.79127 7.9585 2.79127C8.71405 2.79127 9.42596 3.08542 9.96097 3.61894C10.496 4.15248 10.7911 4.86262 10.7911 5.61648C10.7911 6.37034 10.496 7.08048 9.96097 7.61402C9.42596 8.14754 8.71405 8.44169 7.9585 8.44169C7.20294 8.44169 6.49103 8.14754 5.95602 7.61402C5.421 7.08048 5.12585 6.37034 5.12585 5.61648C5.12585 4.86262 5.421 4.15248 5.95602 3.61894Z" fill="#3B4154"/>
<path d="M13.3383 11.8344C13.0454 11.1426 12.6204 10.5142 12.0869 9.98418C11.555 9.45267 10.925 9.0289 10.2315 8.73627C10.2253 8.73317 10.2191 8.73162 10.2129 8.72853C11.1802 8.0318 11.809 6.89691 11.809 5.61648C11.809 3.49533 10.0856 1.77674 7.9585 1.77674C5.83143 1.77674 4.10803 3.49533 4.10803 5.61648C4.10803 6.89691 4.73684 8.0318 5.70411 8.73007C5.04543 9.0585 4.37533 9.44034 3.83005 9.98567C3.29706 10.5161 2.87217 11.1444 2.57872 11.8359C2.29043 12.5129 2.13495 13.2387 2.1207 13.9741C2.12028 13.9906 2.12319 14.0071 2.12925 14.0225C2.1353 14.0378 2.14439 14.0519 2.15596 14.0637C2.16754 14.0755 2.18137 14.0849 2.19664 14.0913C2.21192 14.0978 2.22833 14.1011 2.24491 14.1011H3.17647C3.24478 14.1011 3.29913 14.0469 3.30068 13.9803C3.33173 12.785 3.81304 11.6656 4.66387 10.8172C5.54419 9.93928 6.71331 9.45622 7.9585 9.45622C9.20369 9.45622 10.3728 9.93928 11.2531 10.8172C12.104 11.6656 12.5853 12.785 12.6163 13.9803C12.6179 14.0484 12.6722 14.1011 12.7405 14.1011H13.6721C13.6887 14.1011 13.7051 14.0978 13.7203 14.0913C13.7356 14.0849 13.7495 14.0755 13.761 14.0637C13.7726 14.0519 13.7817 14.0378 13.7877 14.0225C13.7938 14.0071 13.7967 13.9906 13.7963 13.9741C13.7808 13.234 13.6271 12.5141 13.3383 11.8344ZM7.9585 8.27952C7.24585 8.27952 6.57512 8.00238 6.07053 7.49919C5.56593 6.996 5.28801 6.32714 5.28801 5.61648C5.28801 4.90582 5.56593 4.23696 6.07053 3.73377C6.57512 3.23058 7.24585 2.95343 7.9585 2.95343C8.67114 2.95343 9.34187 3.23058 9.84646 3.73377C10.3511 4.23696 10.629 4.90582 10.629 5.61648C10.629 6.32714 10.3511 6.996 9.84646 7.49919C9.34187 8.00238 8.67114 8.27952 7.9585 8.27952Z" fill="#3B4154"/>
</svg>
