<svg width="24" height="24" viewBox="0 0 24 24" fill="none" xmlns="http://www.w3.org/2000/svg">
<path d="M11.1402 3.61496C11.4202 2.79501 12.5798 2.79501 12.8598 3.61496L14.6313 8.80249C14.7222 9.0687 14.9313 9.27779 15.1975 9.3687L20.385 11.1402C21.205 11.4202 21.205 12.5798 20.385 12.8598L15.1975 14.6313C14.9313 14.7222 14.7222 14.9313 14.6313 15.1975L12.8598 20.385C12.5798 21.205 11.4202 21.205 11.1402 20.385L9.3687 15.1975C9.27779 14.9313 9.0687 14.7222 8.80249 14.6313L3.61496 12.8598C2.79501 12.5798 2.79501 11.4202 3.61496 11.1402L8.80249 9.3687C9.0687 9.27779 9.27779 9.0687 9.3687 8.80249L11.1402 3.61496Z" fill="url(#paint0_linear_1026_7106)"/>
<path d="M19.6179 0.273315C19.7423 -0.0911046 20.2577 -0.0911053 20.3821 0.273315L21.1695 2.57889C21.2099 2.6972 21.3028 2.79013 21.4211 2.83053L23.7267 3.61785C24.0911 3.7423 24.0911 4.2577 23.7267 4.38214L21.4211 5.16947C21.3028 5.20987 21.2099 5.3028 21.1695 5.42111L20.3821 7.72669C20.2577 8.0911 19.7423 8.09111 19.6179 7.72669L18.8305 5.42111C18.7901 5.3028 18.6972 5.20987 18.5789 5.16947L16.2733 4.38214C15.9089 4.2577 15.9089 3.7423 16.2733 3.61785L18.5789 2.83053C18.6972 2.79013 18.7901 2.6972 18.8305 2.57889L19.6179 0.273315Z" fill="url(#paint1_linear_1026_7106)"/>
<defs>
<linearGradient id="paint0_linear_1026_7106" x1="3" y1="0" x2="24" y2="21" gradientUnits="userSpaceOnUse">
<stop offset="0.2" stop-color="#58CDFF"/>
<stop offset="0.8" stop-color="#7057FF"/>
</linearGradient>
<linearGradient id="paint1_linear_1026_7106" x1="3" y1="0" x2="24" y2="21" gradientUnits="userSpaceOnUse">
<stop offset="0.2" stop-color="#58CDFF"/>
<stop offset="0.8" stop-color="#7057FF"/>
</linearGradient>
</defs>
</svg>
