<svg width="24" height="24" viewBox="0 0 24 24" fill="none" xmlns="http://www.w3.org/2000/svg">
<path d="M3.90476 21H20.0952C21.1457 21 22 20.1502 22 19.1053V5.78947C22 4.74453 21.1457 3.89474 20.0952 3.89474H17.2381V2H15.3333V3.89474H8.66667V2H6.7619V3.89474H3.90476C2.85429 3.89474 2 4.74453 2 5.78947V19.1053C2 20.1502 2.85429 21 3.90476 21ZM20.0952 7.68421L20.0962 19.1053H3.90476V7.68421H20.0952Z" fill="#8289A0"/>
<path d="M8.66667 11C8.66667 11.7848 8.02707 12.4211 7.2381 12.4211C6.44912 12.4211 5.80952 11.7848 5.80952 11C5.80952 10.2152 6.44912 9.57895 7.2381 9.57895C8.02707 9.57895 8.66667 10.2152 8.66667 11Z" fill="#8289A0"/>
<path d="M8.66667 15.7895C8.66667 16.5743 8.02707 17.2105 7.2381 17.2105C6.44912 17.2105 5.80952 16.5743 5.80952 15.7895C5.80952 15.0046 6.44912 14.3684 7.2381 14.3684C8.02707 14.3684 8.66667 15.0046 8.66667 15.7895Z" fill="#8289A0"/>
<path d="M13.4286 11C13.4286 11.7848 12.789 12.4211 12 12.4211C11.211 12.4211 10.5714 11.7848 10.5714 11C10.5714 10.2152 11.211 9.57895 12 9.57895C12.789 9.57895 13.4286 10.2152 13.4286 11Z" fill="#8289A0"/>
<path d="M13.4286 15.7895C13.4286 16.5743 12.789 17.2105 12 17.2105C11.211 17.2105 10.5714 16.5743 10.5714 15.7895C10.5714 15.0046 11.211 14.3684 12 14.3684C12.789 14.3684 13.4286 15.0046 13.4286 15.7895Z" fill="#8289A0"/>
<path d="M18.1905 11C18.1905 11.7848 17.5509 12.4211 16.7619 12.4211C15.9729 12.4211 15.3333 11.7848 15.3333 11C15.3333 10.2152 15.9729 9.57895 16.7619 9.57895C17.5509 9.57895 18.1905 10.2152 18.1905 11Z" fill="#8289A0"/>
<path d="M18.1905 15.7895C18.1905 16.5743 17.5509 17.2105 16.7619 17.2105C15.9729 17.2105 15.3333 16.5743 15.3333 15.7895C15.3333 15.0046 15.9729 14.3684 16.7619 14.3684C17.5509 14.3684 18.1905 15.0046 18.1905 15.7895Z" fill="#8289A0"/>
</svg>
