<svg width="20" height="20" viewBox="0 0 20 20" fill="none" xmlns="http://www.w3.org/2000/svg">
<path d="M7.61673 3.01247C7.85006 2.32918 8.81644 2.32918 9.04977 3.01246L10.526 7.33541C10.6018 7.55725 10.776 7.73149 10.9978 7.80725L15.3208 9.28348C16.0041 9.51681 16.0041 10.4832 15.3208 10.7165L10.9978 12.1927C10.776 12.2685 10.6018 12.4427 10.526 12.6646L9.04977 16.9875C8.81644 17.6708 7.85006 17.6708 7.61673 16.9875L6.1405 12.6646C6.06474 12.4427 5.8905 12.2685 5.66866 12.1927L1.34572 10.7165C0.662431 10.4832 0.662429 9.51681 1.34572 9.28348L5.66866 7.80725C5.8905 7.73149 6.06474 7.55725 6.1405 7.33541L7.61673 3.01247Z" fill="url(#paint0_linear_1035_1492)"/>
<path d="M15.5148 13.5611C15.6185 13.2574 16.048 13.2574 16.1517 13.5611L16.8078 15.4824C16.8415 15.581 16.9189 15.6584 17.0175 15.6921L18.9388 16.3482C19.2425 16.4519 19.2425 16.8814 18.9388 16.9851L17.0175 17.6412C16.9189 17.6749 16.8415 17.7523 16.8078 17.8509L16.1517 19.7722C16.048 20.0759 15.6185 20.0759 15.5148 19.7722L14.8587 17.8509C14.825 17.7523 14.7476 17.6749 14.649 17.6412L12.7277 16.9851C12.424 16.8814 12.424 16.4519 12.7277 16.3482L14.649 15.6921C14.7476 15.6584 14.825 15.581 14.8587 15.4824L15.5148 13.5611Z" fill="url(#paint1_linear_1035_1492)"/>
<path d="M15.5148 0.227763C15.6185 -0.0759205 16.048 -0.0759211 16.1517 0.227762L16.8078 2.14907C16.8415 2.24767 16.9189 2.32511 17.0175 2.35878L18.9388 3.01488C19.2425 3.11858 19.2425 3.54808 18.9388 3.65179L17.0175 4.30789C16.9189 4.34156 16.8415 4.419 16.8078 4.5176L16.1517 6.4389C16.048 6.74259 15.6185 6.74259 15.5148 6.4389L14.8587 4.5176C14.825 4.419 14.7476 4.34156 14.649 4.30789L12.7277 3.65179C12.424 3.54808 12.424 3.11858 12.7277 3.01488L14.649 2.35878C14.7476 2.32511 14.825 2.24767 14.8587 2.14907L15.5148 0.227763Z" fill="url(#paint2_linear_1035_1492)"/>
<defs>
<linearGradient id="paint0_linear_1035_1492" x1="0.833252" y1="0" x2="20.7578" y2="18.2642" gradientUnits="userSpaceOnUse">
<stop stop-color="#51E5FF"/>
<stop offset="1" stop-color="#8B1FFF"/>
</linearGradient>
<linearGradient id="paint1_linear_1035_1492" x1="0.833252" y1="0" x2="20.7578" y2="18.2642" gradientUnits="userSpaceOnUse">
<stop stop-color="#51E5FF"/>
<stop offset="1" stop-color="#8B1FFF"/>
</linearGradient>
<linearGradient id="paint2_linear_1035_1492" x1="0.833252" y1="0" x2="20.7578" y2="18.2642" gradientUnits="userSpaceOnUse">
<stop stop-color="#51E5FF"/>
<stop offset="1" stop-color="#8B1FFF"/>
</linearGradient>
</defs>
</svg>
