<svg width="24" height="24" viewBox="0 0 24 24" fill="none" xmlns="http://www.w3.org/2000/svg">
<path d="M9.14017 3.61496C9.42017 2.79501 10.5798 2.79501 10.8598 3.61496L12.6313 8.80249C12.7222 9.0687 12.9313 9.27779 13.1975 9.3687L18.385 11.1402C19.205 11.4202 19.205 12.5798 18.385 12.8598L13.1975 14.6313C12.9313 14.7222 12.7222 14.9313 12.6313 15.1975L10.8598 20.385C10.5798 21.205 9.42017 21.205 9.14017 20.385L7.3687 15.1975C7.27779 14.9313 7.0687 14.7222 6.80249 14.6313L1.61496 12.8598C0.795015 12.5798 0.795013 11.4202 1.61496 11.1402L6.80249 9.3687C7.0687 9.27779 7.27779 9.0687 7.3687 8.80249L9.14017 3.61496Z" fill="#8289A0"/>
<path d="M19.1656 17.2392C19.2745 16.9203 19.7255 16.9203 19.8344 17.2392L20.5233 19.2565C20.5586 19.3601 20.6399 19.4414 20.7435 19.4767L22.7608 20.1656C23.0797 20.2745 23.0797 20.7255 22.7609 20.8344L20.7435 21.5233C20.6399 21.5586 20.5586 21.6399 20.5233 21.7435L19.8344 23.7608C19.7255 24.0797 19.2745 24.0797 19.1656 23.7609L18.4767 21.7435C18.4414 21.6399 18.3601 21.5586 18.2565 21.5233L16.2392 20.8344C15.9203 20.7255 15.9203 20.2745 16.2392 20.1656L18.2565 19.4767C18.3601 19.4414 18.4414 19.3601 18.4767 19.2565L19.1656 17.2392Z" fill="#8289A0"/>
<path d="M19.1656 0.239151C19.2745 -0.0797165 19.7255 -0.0797172 19.8344 0.23915L20.5233 2.25652C20.5586 2.36005 20.6399 2.44136 20.7435 2.47672L22.7608 3.16562C23.0797 3.27451 23.0797 3.72549 22.7609 3.83438L20.7435 4.52328C20.6399 4.55864 20.5586 4.63995 20.5233 4.74347L19.8344 6.76085C19.7255 7.07972 19.2745 7.07972 19.1656 6.76085L18.4767 4.74347C18.4414 4.63995 18.3601 4.55864 18.2565 4.52328L16.2392 3.83438C15.9203 3.72549 15.9203 3.27451 16.2392 3.16562L18.2565 2.47672C18.3601 2.44136 18.4414 2.36005 18.4767 2.25652L19.1656 0.239151Z" fill="#8289A0"/>
</svg>
