<svg width="16" height="16" viewBox="0 0 16 16" fill="none" xmlns="http://www.w3.org/2000/svg">
<path d="M11.0834 4.41666H2.91675C2.64019 4.41666 2.41675 4.64009 2.41675 4.91666V13.0833C2.41675 13.3599 2.64019 13.5833 2.91675 13.5833H11.0834C11.36 13.5833 11.5834 13.3599 11.5834 13.0833V4.91666C11.5834 4.64009 11.36 4.41666 11.0834 4.41666ZM10.4584 12.4583H3.54175V5.54166H10.4584V12.4583ZM13.0834 2.41666H4.79175C4.723 2.41666 4.66675 2.47291 4.66675 2.54166V3.41666C4.66675 3.48541 4.723 3.54166 4.79175 3.54166H12.4584V11.2083C12.4584 11.2771 12.5147 11.3333 12.5834 11.3333H13.4584C13.5272 11.3333 13.5834 11.2771 13.5834 11.2083V2.91666C13.5834 2.64009 13.36 2.41666 13.0834 2.41666Z" fill="#808596"/>
</svg>
