<svg width="20" height="20" viewBox="0 0 20 20" fill="none" xmlns="http://www.w3.org/2000/svg">
<path d="M9.80615 7.25507C10.1666 7.25507 10.4678 7.31249 10.7095 7.42759C10.9552 7.53886 11.1376 7.69997 11.2563 7.91099C11.3751 8.11814 11.4346 8.36362 11.4346 8.64748C11.4346 8.93129 11.3751 9.1787 11.2563 9.38967C11.1376 9.60069 10.9552 9.76634 10.7095 9.88527C10.4679 10.0003 10.1689 10.0578 9.81266 10.0578H8.50977V7.25507H9.80615Z" fill="#F22625"/>
<path fill-rule="evenodd" clip-rule="evenodd" d="M14.9998 1.66669C16.8408 1.66669 18.3332 3.15907 18.3332 5.00002V15C18.3332 16.841 16.8408 18.3334 14.9998 18.3334H4.99984C3.15889 18.3334 1.6665 16.841 1.6665 15V5.00002C1.6665 3.15907 3.15889 1.66669 4.99984 1.66669H14.9998ZM6.6665 5.83335V14.1667H8.50977V11.4502H10.1016C10.7732 11.4502 11.3509 11.3335 11.8341 11.0995C12.3216 10.8616 12.6918 10.5329 12.9458 10.1148C13.2038 9.69276 13.3332 9.20374 13.3332 8.64748C13.3332 8.09504 13.2079 7.60605 12.958 7.1802C12.7081 6.75434 12.3419 6.42383 11.8586 6.1898C11.3793 5.95196 10.8074 5.83335 10.1439 5.83335H6.6665Z" fill="#F22625"/>
</svg>
