<svg width="20" height="20" viewBox="0 0 20 20" fill="none" xmlns="http://www.w3.org/2000/svg">
<path d="M2.5 14.6875V5.3125C2.5 3.75908 3.75961 2.5002 5.3125 2.5H8.06641C8.58417 2.5 9.00391 2.91973 9.00391 3.4375C9.00391 3.95527 8.58417 4.375 8.06641 4.375H5.3125C4.79466 4.3752 4.375 4.7951 4.375 5.3125V14.6875C4.375 15.2053 4.79473 15.625 5.3125 15.625H14.6875C15.2053 15.625 15.625 15.2053 15.625 14.6875V11.875C15.625 11.3572 16.0447 10.9375 16.5625 10.9375C17.0803 10.9375 17.5 11.3572 17.5 11.875V14.6875C17.5 16.2408 16.2408 17.5 14.6875 17.5H5.3125C3.7592 17.5 2.5 16.2408 2.5 14.6875Z" fill="#3B4154"/>
<path d="M15.625 8.125V4.375H11.875C11.3572 4.375 10.9375 3.95527 10.9375 3.4375C10.9375 2.91973 11.3572 2.5 11.875 2.5H15.625C16.6605 2.5 17.5 3.33947 17.5 4.375V8.125C17.5 8.64277 17.0803 9.0625 16.5625 9.0625C16.0447 9.0625 15.625 8.64277 15.625 8.125Z" fill="#3B4154"/>
<path d="M14.9622 3.7122C15.3283 3.34609 15.9217 3.34609 16.2878 3.7122C16.654 4.07832 16.654 4.67177 16.2878 5.03789L10.6628 10.6629C10.2967 11.029 9.70328 11.029 9.33716 10.6629C8.97104 10.2968 8.97104 9.70332 9.33716 9.3372L14.9622 3.7122Z" fill="#3B4154"/>
</svg>
