<svg width="48" height="48" viewBox="0 0 48 48" fill="none" xmlns="http://www.w3.org/2000/svg">
<path d="M23.9992 10C18.3952 10 14.0152 14.3809 14.0152 20.0981V33.476C14.0152 33.476 13.8399 35.2522 14.6795 36.4931C15.2662 37.3557 16.072 37.9693 16.9622 38C17.5927 37.9352 17.6298 37.1443 17.6298 37.1443V27.9598C19.3494 29.3644 21.5614 30.2031 24.0026 30.2031C29.5998 30.2031 34 25.8154 34 20.0981C34 14.3809 29.5998 10 23.9992 10ZM24.0059 26.6745C20.4621 26.6745 17.5893 23.7187 17.5893 20.0777C17.5893 16.4366 20.4588 13.4808 24.0059 13.4808C27.5531 13.4808 30.4191 16.4332 30.4191 20.0743C30.4191 23.7153 27.5463 26.6711 24.0059 26.6711V26.6745Z" fill="#1F58C6"/>
</svg>
